<?xml version="1.0" encoding="UTF-8"?>
<svg width="128px" height="112px" viewBox="0 0 128 112" version="1.1" xmlns="http://www.w3.org/2000/svg" xmlns:xlink="http://www.w3.org/1999/xlink">
    <!-- Generator: Sketch 48.2 (47327) - http://www.bohemiancoding.com/sketch -->
    <title>random</title>
    <desc>Created with Sketch.</desc>
    <defs></defs>
    <g id="Page-1" stroke="none" stroke-width="1" fill="none" fill-rule="evenodd">
        <path d="M126.242565,81.7572807 C128.585812,84.100532 128.585812,87.899534 126.242565,90.2425352 L106.242594,110.238546 C102.4901,113.991048 95.9998594,111.361047 95.9998594,105.995794 L95.9998594,96.0000383 L81.3036309,96.0000383 C80.4720899,95.9999529 79.6778603,95.6548476 79.1103841,95.0470378 L61.47141,76.1480277 L74.8046404,61.8622701 L87.9998711,76.0000276 L95.9998594,76.0000276 L95.9998594,66.0047723 C95.9998594,60.6452694 102.4856,58.005268 106.242594,61.76202 L126.242565,81.7572807 Z M2.99999561,36.0000063 L23.9999648,36.0000063 L37.1951955,50.1377638 L50.528426,35.8520062 L32.8894518,16.9529961 C32.3220644,16.3450608 31.5277773,15.9999304 30.696205,15.9999956 L2.99999561,15.9999956 C1.34324803,15.9999956 0,17.3432463 0,18.9999972 L0,33.0000047 C0,34.6567556 1.34324803,36.0000063 2.99999561,36.0000063 Z M95.9998594,36.0000063 L95.9998594,45.9960116 C95.9998594,51.3610145 102.4901,53.9910159 106.242594,50.2387639 L126.242565,30.2427532 C128.585812,27.899502 128.585812,24.1004999 126.242565,21.7574987 L106.242594,1.76223801 C102.4856,-1.99476399 95.9998594,0.645487415 95.9998594,6.00474028 L95.9998594,15.9999956 L81.3036309,15.9999956 C80.4720899,16.000081 79.6778603,16.3451864 79.1103841,16.9529961 L23.9999648,76.0000276 L2.99999561,76.0000276 C1.34324803,76.0000276 0,77.3432783 0,79.0000292 L0,93.0000367 C0,94.6567876 1.34324803,96.0000383 2.99999561,96.0000383 L30.696205,96.0000383 C31.5277038,96.0000383 32.3219527,95.6547881 32.8894518,95.0470378 L87.9998711,36.0000063 L95.9998594,36.0000063 Z" id="random" fill="#1A1A1A" fill-rule="nonzero"></path>
    </g>
</svg>