<?xml version="1.0" encoding="UTF-8"?>
<svg width="124px" height="124px" viewBox="0 0 124 124" version="1.1" xmlns="http://www.w3.org/2000/svg" xmlns:xlink="http://www.w3.org/1999/xlink">
    <!-- Generator: Sketch 48.2 (47327) - http://www.bohemiancoding.com/sketch -->
    <title>readlater</title>
    <desc>Created with Sketch.</desc>
    <defs></defs>
    <g id="Page-1" stroke="none" stroke-width="1" fill="none" fill-rule="evenodd">
        <path d="M62,0 C27.75,0 0,27.75 0,62 C0,96.25 27.75,124 62,124 C96.25,124 124,96.25 124,62 C124,27.75 96.25,0 62,0 Z M76.275,87.525 L54.225,71.5 C53.45,70.925 53,70.025 53,69.075 L53,27 C53,25.35 54.35,24 56,24 L68,24 C69.65,24 71,25.35 71,27 L71,61.425 L86.875,72.975 C88.225,73.95 88.5,75.825 87.525,77.175 L80.475,86.875 C79.5,88.2 77.625,88.5 76.275,87.525 Z" id="readlater" fill="#1A1A1A" fill-rule="nonzero"></path>
    </g>
</svg>