<?xml version="1.0" encoding="UTF-8"?>
<svg width="128px" height="128px" viewBox="0 0 128 128" version="1.1" xmlns="http://www.w3.org/2000/svg" xmlns:xlink="http://www.w3.org/1999/xlink">
    <!-- Generator: Sketch 48.2 (47327) - http://www.bohemiancoding.com/sketch -->
    <title>save</title>
    <desc>Created with Sketch.</desc>
    <defs></defs>
    <g id="Page-1" stroke="none" stroke-width="1" fill="none" fill-rule="evenodd">
        <path d="M88.2066032,48.4157426 C101.47604,43.6751483 116.293146,44.238104 126.075346,54.019943 C128.60862,56.553221 128.645958,60.6230235 126.158743,63.1102418 L100.639226,88.6297962 L120.516876,108.507475 C120.754185,108.744927 120.934012,109.03332 121.042139,109.349857 L125.712377,123.027004 C126.285653,124.706252 124.703029,126.284674 123.027011,125.712374 L109.349884,121.042129 C109.033222,120.934126 108.744873,120.754235 108.507504,120.516865 L88.6298539,100.639186 L63.110337,126.15874 C60.6231223,128.645959 56.5533257,128.608621 54.0200515,126.075343 C44.3228957,116.378173 43.623941,101.619069 48.4156716,88.2067325 L28.1084916,63.3078794 L20.1886221,71.2277605 C17.7014074,73.7149788 13.6316109,73.6776412 11.0983367,71.1443633 L1.92465409,61.9706672 C-0.608620127,59.4373893 -0.64595771,55.3675868 1.84125698,52.8803685 L52.8802909,1.84125968 C55.3675056,-0.645958657 59.4373022,-0.608621019 61.9705764,1.92465691 L71.144259,11.0983529 C73.6775332,13.6316309 73.7148708,17.7014334 71.2276561,20.1886517 L63.3077866,28.1085328 L88.2066032,48.4157426 Z" id="save" fill="#1A1A1A" fill-rule="nonzero"></path>
    </g>
</svg>