<?xml version="1.0" encoding="UTF-8"?>
<svg width="144px" height="96px" viewBox="0 0 144 96" version="1.1" xmlns="http://www.w3.org/2000/svg" xmlns:xlink="http://www.w3.org/1999/xlink">
    <!-- Generator: Sketch 48.2 (47327) - http://www.bohemiancoding.com/sketch -->
    <title>unread</title>
    <desc>Created with Sketch.</desc>
    <defs></defs>
    <g id="Page-1" stroke="none" stroke-width="1" fill="none" fill-rule="evenodd">
        <path d="M138,0 L22,0 C18.68625,0 16,2.68625 16,6 L16,8 L6,8 C2.68625,8 0,10.68625 0,14 L0,82 C0,89.732 6.268,96 14,96 L132,96 C138.6275,96 144,90.6275 144,84 L144,6 C144,2.68625 141.31375,0 138,0 Z M14,84 C12.8954305,84 12,83.1045695 12,82 L12,20 L16,20 L16,82 C16,83.1045695 15.1045695,84 14,84 Z M73,80 L35,80 C33.34325,80 32,78.65675 32,77 L32,75 C32,73.34325 33.34325,72 35,72 L73,72 C74.65675,72 76,73.34325 76,75 L76,77 C76,78.65675 74.65675,80 73,80 Z M125,80 L87,80 C85.34325,80 84,78.65675 84,77 L84,75 C84,73.34325 85.34325,72 87,72 L125,72 C126.65675,72 128,73.34325 128,75 L128,77 C128,78.65675 126.65675,80 125,80 Z M73,56 L35,56 C33.34325,56 32,54.65675 32,53 L32,51 C32,49.34325 33.34325,48 35,48 L73,48 C74.65675,48 76,49.34325 76,51 L76,53 C76,54.65675 74.65675,56 73,56 Z M125,56 L87,56 C85.34325,56 84,54.65675 84,53 L84,51 C84,49.34325 85.34325,48 87,48 L125,48 C126.65675,48 128,49.34325 128,51 L128,53 C128,54.65675 126.65675,56 125,56 Z M125,32 L35,32 C33.34325,32 32,30.65675 32,29 L32,19 C32,17.34325 33.34325,16 35,16 L125,16 C126.65675,16 128,17.34325 128,19 L128,29 C128,30.65675 126.65675,32 125,32 Z" id="unread" fill="#1A1A1A" fill-rule="nonzero"></path>
    </g>
</svg>